{"title":"Daddy's Dyin'... Who's Got the Will 1990 DVDRip XviD{scenetime}","uid":7826106,"size":1143649542,"categoryP":"video","categoryS":"movies","magnet":"?xt=urn:btih:0d0c162279997cb657a9a902281b32b8e30094ba&amp;dn=Daddy%27s+Dyin%27...+Who%27s+Got+the+Will+1990+DVDRip+XviD%7Bscenetime%7D&amp;tr=udp%3A%2F%2Ftracker.openbittorrent.com%3A80&amp;tr=udp%3A%2F%2Fopen.demonii.com%3A1337&amp;tr=udp%3A%2F%2Ftracker.coppersurfer.tk%3A6969&amp;tr=udp%3A%2F%2Fexodus.desync.com%3A6969","seeders":0,"leechers":1,"uploader":null,"files":-1,"time":1352930096,"description":"Daddy's Dyin'... Who's Got the Will 1990 DVDRip XviD{scenetime}\n\n===================================================================================\n\nwww.imdb.com/title/tt0099342/\n\n===================================================================================\n\nGeneral\n\nFormat                           : AVI\nFormat/Info                      : Audio Video Interleave\nFormat profile                   : OpenDML\nFile size                        : 1.07 GiB\nDuration                         : 1h 35mn\nOverall bit rate                 : 1 592 Kbps\nMovie name                       : Daddy's Dyin'... Who's Got the Will.Title1.DVDRip\nWriting application              : Lavf53.21.0\nOriginal source form/Name        : Daddy's Dyin'... Who's Got the Will\nOriginal Source                  :\n\nVideo\nID                               : 0\nFormat                           : MPEG-4 Visual\nFormat profile                   : Advanced Simple@L5\nFormat settings, BVOP            : 2\nFormat settings, QPel            : No\nFormat settings, GMC             : No warppoints\nFormat settings, Matrix          : Default (H.263)\nMuxing mode                      : Packed bitstream\nCodec ID                         : XVID\nCodec ID/Hint                    : XviD\nDuration                         : 1h 35mn\nBit rate                         : 170 Kbps\nWidth                            : 720 pixels\nHeight                           : 402 pixels\nDisplay aspect ratio             : 16:9\nFrame rate                       : 23.976 fps\nColor space                      : YUV\nChroma subsampling               : 4:2:0\nBit depth                        : 8 bits\nScan type                        : Progressive\nCompression mode                 : Lossy\nBits/(Pixel*Frame)               : 0.024\nStream size                      : 116 MiB (11%)\nWriting library                  : XviD 1.2.1 (UTC 2008-12-04)\n\nAudio\nID                               : 1\nFormat                           : AC-3\nFormat/Info                      : Audio Coding 3\nMode extension                   : CM (complete main)\nCodec ID                         : 2000\nDuration                         : 1h 35mn\nBit rate mode                    : Constant\nBit rate                         : 192 Kbps\nChannel(s)                       : 2 channels\nChannel positions                : Front: L R\nSampling rate                    : 48.0 KHz\nBit depth                        : 16 bits\nCompression mode                 : Lossy\nStream size                      : 5.99 MiB (1%)\nAlignment                        : Aligned on interleaves\nInterleave, duration             : 74 ms (1.77 video frames)\n\n===================================================================================","torrent":{"xt":"urn:btih:0d0c162279997cb657a9a902281b32b8e30094ba","amp;dn":"Daddy%27s+Dyin%27...+Who%27s+Got+the+Will+1990+DVDRip+XviD%7Bscenetime%7D","amp;tr":["udp%3A%2F%2Ftracker.openbittorrent.com%3A80","udp%3A%2F%2Fopen.demonii.com%3A1337","udp%3A%2F%2Ftracker.coppersurfer.tk%3A6969","udp%3A%2F%2Fexodus.desync.com%3A6969"],"infoHash":"0d0c162279997cb657a9a902281b32b8e30094ba","infoHashBuffer":{"type":"Buffer","data":[13,12,22,34,121,153,124,182,87,169,169,2,40,27,50,184,227,0,148,186]},"announce":[],"urlList":[]}}